<svg viewBox="-11 0 511 511.998" xmlns="http://www.w3.org/2000/svg"><path d="M266.7 115.434h-1.696c-9.797 0-17.766 7.972-17.766 17.77v90.503h35.535v-92.2c0-8.862-7.21-16.073-16.074-16.073zm81.609 108.269v-73.742c0-9.797-7.973-17.766-17.77-17.766s-17.766 7.97-17.766 17.766v73.742zm-148.84-91.508c-9.797 0-17.77 7.97-17.77 17.766v110.445c0 9.797 7.973 17.77 17.77 17.77.144 0 .281-.02.426-.024a60.308 60.308 0 01-.922-10.425c0-14.66 7.21-27.66 18.261-35.664V149.96c.004-9.797-7.968-17.766-17.765-17.766zm0 0"/><path d="M437.926 170.145l5.203-81.211-78.86-20.102L320.802 0l-75.625 30.152L169.546 0l-43.464 68.832-78.86 20.102 5.204 81.21L.5 232.778l55.73 67.22h29.934V171.96c0-26.34 21.43-47.77 47.77-47.77a47.435 47.435 0 0122.277 5.536c7.633-16.25 24.148-27.532 43.258-27.532a47.44 47.44 0 0124.418 6.735c8.328-14.051 23.636-23.496 41.117-23.496h1.695c17.078 0 32.004 9.347 39.961 23.183a47.486 47.486 0 0123.883-6.422c26.336 0 47.766 21.426 47.766 47.766v73.742h2.836c19.824 0 35.949 16.129 35.949 35.953v40.34h17.027l55.73-67.223zm0 0"/><path d="M133.93 154.191c-9.797 0-17.766 7.973-17.766 17.77v88.445c0 9.797 7.969 17.77 17.766 17.77 9.8 0 17.77-7.973 17.77-17.77v-88.445c0-9.797-7.97-17.77-17.77-17.77zm246.468 99.512H243.047c-7.692 0-13.945 6.258-13.945 13.945 0 16.493 13.421 29.914 29.914 29.914h73.808v42.536l-7.012 4.379c-.277.18-31.87 20.523-31.87 47.761h-29.829c0-30.527 21.32-53.379 34.914-64.847h-40.011c-18.391 0-34.86-8.36-45.825-21.47a47.166 47.166 0 01-13.421 1.938c-12.606 0-24.07-4.941-32.583-12.98-8.511 8.039-19.976 12.98-32.578 12.98a47.217 47.217 0 01-17.668-3.418v92.125c0 30.7 24.977 55.676 55.672 55.676h27.153v29.824h-27.149a85.65 85.65 0 01-15.578-1.445v31.375h170.633v-31.473a106.67 106.67 0 01-18.094 1.543h-12.07v-29.824h12.07c42.313 0 76.734-34.426 76.734-76.738V259.62a5.92 5.92 0 00-5.914-5.918zm0 0"/></svg>