<svg width="800" height="800" viewBox="0 0 24 24" xmlns="http://www.w3.org/2000/svg"><path d="M14 19v-1.29a7.89 7.89 0 003.65-2.06A8.05 8.05 0 0019.93 11a8.24 8.24 0 00.07-1 8.26 8.26 0 00-.07-1 8 8 0 00-1.28-3.44 4.94 4.94 0 00-.35-.45 7.55 7.55 0 00-.64-.74h-.06A7.73 7.73 0 0012.05 2H12a8 8 0 00-1.54.13 8 8 0 00-4.1 2.19 9.32 9.32 0 00-.65.76 8.11 8.11 0 00-1.56 3.36c0 .18 0 .37-.07.56A8.06 8.06 0 004 10v.07a7.89 7.89 0 003.54 6.6A7.85 7.85 0 0010 17.73V19H2v3h20v-3zm-3.17-3.12a6 6 0 01-4.71-4.71 1 1 0 010-.17H7V9h-.9a6 6 0 01.36-1.3 5.79 5.79 0 01.66-1.16l.64.63 1.41-1.41-.64-.64.14-.12A6 6 0 0111 4.09V5h2v-.91a6.19 6.19 0 012.47 1l-.64.64 1.41 1.41.64-.64a6.19 6.19 0 011 2.47H17v2h.91a6 6 0 01-3.61 4.54 5.9 5.9 0 01-3.47.37z"/><path d="M10.5 13a1.39 1.39 0 00.5 1.05 1.45 1.45 0 002.1 0 1.39 1.39 0 00.4-1.05c-.17-1.9-1.5-7.5-1.5-7.5s-1.33 5.6-1.5 7.5z"/></svg>