<svg height="800" width="800" xmlns="http://www.w3.org/2000/svg" viewBox="0 0 128 128"><circle transform="rotate(-61.502 83.564 30.73)" cx="83.6" cy="30.7" r="5.8"/><path d="M42.4 106.5c-1-.5-1.3-1.7-.8-2.7l2.9-5.3c.5-1 1.7-1.3 2.7-.8 1 .5 1.3 1.7.8 2.7l-2.9 5.3c-.5.9-1.7 1.3-2.7.8zm-8.9-.3c-1-.5-1.3-1.7-.8-2.7l2.9-5.3c.5-1 1.7-1.3 2.7-.8 1 .5 1.3 1.7.8 2.7l-2.9 5.3c-.5.9-1.7 1.3-2.7.8zm14.1 7.6c-1-.5-1.3-1.7-.8-2.7l2.9-5.3c.5-1 1.7-1.3 2.7-.8 1 .5 1.3 1.7.8 2.7l-2.9 5.3c-.6 1-1.8 1.3-2.7.8z"/><path d="M81 101.6c.4-2.8.3-5.8-.2-8.4 4.5-4.8 8.5-10.3 11.8-16.2 11.4-21 11.6-43.9 2.2-64.4l-.6-1.4-1.4.3c-22.3 3.3-41.4 16-52.8 36.9-3.2 6-5.7 12.3-7.2 18.7-2.6 1-5 2.4-7.2 4.4-7.8 6.9-10 17.9-6.3 26.9l19.1-16.9h.1l2.5 4.3-2.5 1.3c-.6.3-1 1-1 1.7s.4 1.4 1 1.7l19.8 10.7c.6.3 1.4.3 2-.1.5-.4.9-1.1.9-1.8l-.3-2.8 4.9-.3h.1l-3.8 25.2c9.5-1.7 17.4-9.5 18.9-19.8zM56.4 82.2l-1.2-.7L66.3 61c.2-.4.6-.5.9-.3.4.2.5.6.3.9L56.4 82.2zm19.4 10.6l-13-7.1L83 48.5c.2-.4.6-.5.9-.3.4.2.5.6.3.9l-7.8 14.3c-.7 1.2-.2 2.7 1 3.4s2.7.2 3.4-1l8.4-15.6c1.9-3.5.7-7.9-2.9-9.9l-12.6-6.8c-3.5-1.9-7.9-.7-9.9 2.9L55.4 52c-.7 1.2-.2 2.7 1 3.4 1.2.7 2.7.2 3.4-1l7.8-14.3c.2-.4.6-.5.9-.3.4.2.5.6.3.9L48.7 78l-12.9-7c1.5-7.2 4-14.2 7.5-20.8 10.5-19.4 28-31.2 48.6-34.7 8.3 19.1 7.9 40.1-2.7 59.6-3.6 6.6-8.2 12.5-13.4 17.7z"/></svg>