<svg xmlns="http://www.w3.org/2000/svg" viewBox="0 0 413.312 413.311"><path d="M188.201 205.209l5.974 5.974-10.378 10.373-5.969-5.969 10.373-10.378zm18.962-18.951l5.978 5.972 11.346-11.357-5.98-5.971-11.344 11.356zm-15.161 15.148l5.969 5.976 11.354-11.357-5.979-5.971-11.344 11.352zM412.524 37.59L37.59 412.525a2.674 2.674 0 01-1.9.782 2.698 2.698 0 01-1.906-.782L.787 379.526a2.685 2.685 0 010-3.799L375.721.792a2.69 2.69 0 013.802 0l32.997 32.999a2.681 2.681 0 01.004 3.799zM230.177 178.975l-9.775-9.78a2.692 2.692 0 00-3.801 0l-44.483 44.487a2.686 2.686 0 000 3.8l9.78 9.774a2.675 2.675 0 001.899.783c.688 0 1.375-.259 1.906-.783l29.328-29.322c0-.011 0-.011.011-.011l15.145-15.147a2.68 2.68 0 00-.01-3.801z"/></svg>