<svg xmlns="http://www.w3.org/2000/svg" viewBox="0 0 512 512"><path d="M364.8 216.411c-1.737-.549-5.211-.823-9.874 3.566a12.41 12.41 0 01-1.92 1.371c-1.463 7.497-3.017 12.343-3.2 13.075a170.656 170.656 0 00-6.766 41.417 72.63 72.63 0 0019.383-33.097 47.62 47.62 0 002.377-26.332zm-32.457 12.435a135.431 135.431 0 004.023-17.92c3.017-19.017 4.48-49.189-10.971-70.217-12.251-16.64-33.737-25.143-63.726-25.143h-11.337c-30.08 0-51.474 8.503-63.726 25.234-15.451 21.12-13.989 51.2-10.971 70.126.091.64.183 1.28.274 1.829a138.342 138.342 0 003.749 16.091 167.06 167.06 0 015.943 70.126 23.603 23.603 0 009.691 26.514c.183.091.274.091.366.274a5.983 5.983 0 011.646 1.371c1.097.731 2.194 1.554 3.383 2.377a85.909 85.909 0 0110.88 9.143 88.485 88.485 0 0111.337 16.183c6.217 10.423 10.331 16.731 16.091 16.731h34.011c5.76 0 9.874-6.309 16.091-16.731a88.485 88.485 0 0111.337-16.183 85.909 85.909 0 0110.88-9.143c1.189-.823 2.286-1.646 3.383-2.377a6.722 6.722 0 011.737-1.463 23.795 23.795 0 009.966-26.698 167.053 167.053 0 015.943-70.124z"/><path d="M510.811 152.503a9.49 9.49 0 00-2.743-6.4L362.971 2.651a9.22 9.22 0 00-6.4-2.651h-.091L152.503 1.189a9.49 9.49 0 00-6.4 2.743L2.651 149.029A9.44 9.44 0 000 155.52l1.189 203.977a9.49 9.49 0 002.743 6.4l145.097 143.452a9.22 9.22 0 006.4 2.651h.091l203.977-1.189a9.49 9.49 0 006.4-2.743l143.451-145.097a9.44 9.44 0 002.651-6.491l-1.188-203.977zm-22.308 205.714L360.96 487.223a17.822 17.822 0 01-12.891 5.394l-181.303 1.097h-.091a18.43 18.43 0 01-12.891-5.303L24.777 360.96a18.131 18.131 0 01-5.394-12.891l-1.097-181.303a18.48 18.48 0 015.303-12.983L151.131 24.777a17.82 17.82 0 0112.891-5.394l181.303-1.097h.091a18.422 18.422 0 0112.891 5.303L487.314 151.04a18.131 18.131 0 015.394 12.891l1.006 181.303a18.015 18.015 0 01-5.211 12.983z"/><path d="M167.885 262.316c-.364-3.071-.81-6.131-1.341-9.177a169.38 169.38 0 00-4.35-18.716c-.069-.274-.33-1.127-.707-2.481a137.564 137.564 0 01-2.493-10.593 12.546 12.546 0 01-1.92-1.371c-4.663-4.389-8.046-4.114-9.874-3.566a47.604 47.604 0 002.377 26.332 72.63 72.63 0 0019.383 33.097 169.2 169.2 0 00-1.075-13.525z"/><path d="M474.423 164.114L345.417 36.571l-181.303 1.097L36.571 166.583l.366 67.931.731 113.371 66.56 65.829 62.446 61.714 181.303-1.097 55.68-56.411 2.743-2.743 1.463-1.554 1.006-1.097 1.006-1.006 65.554-66.103-.64-111.086-.366-70.217zM75.154 253.806a54.17 54.17 0 001.463 6.674 99.344 99.344 0 0011.246 26.24 9.09 9.09 0 01-3.017 12.526 9.023 9.023 0 01-12.526-3.018c-23.284-37.914-23.284-85.697 0-123.611a9.112 9.112 0 0115.796.383 9.111 9.111 0 01-.254 9.126 100.185 100.185 0 00-14.72 52.297 91.238 91.238 0 002.012 19.383zm40.229 6.857a9.2 9.2 0 01-4.48 12.16 9.674 9.674 0 01-3.84.823 9.236 9.236 0 01-8.32-5.303 81.738 81.738 0 01-4.48-12.251c-.457-1.737-.823-3.474-1.189-5.303a82.273 82.273 0 015.669-50.286c2.128-4.583 7.564-6.579 12.151-4.461a9.163 9.163 0 014.489 12.141 63.568 63.568 0 000 52.48zm274.011 134.674a8.599 8.599 0 01-5.211 3.383 8.29 8.29 0 01-2.103.274 9.4 9.4 0 01-5.486-1.829 194.143 194.143 0 00-41.417-23.863 47.155 47.155 0 003.657 13.806 9.007 9.007 0 01-6.492 15.269 9.752 9.752 0 01-6.857-2.743c-3.931-3.931-7.314-12.16-10.606-38.583a15.066 15.066 0 01-.183-1.92c-.366-2.651-.64-5.303-1.006-7.863a71.819 71.819 0 00-8.869 12.891c-6.766 11.429-15.269 25.691-31.817 25.691h-34.011c-16.549 0-25.051-14.263-31.817-25.691a71.68 71.68 0 00-8.869-12.891c-.091-.091-.183-.183-.274-.183-.183 2.651-.549 5.394-.914 8.046a6.226 6.226 0 01-.183 1.829c-3.749 31.817-8.411 36.389-10.606 38.674a9.27 9.27 0 01-12.983 0 9.215 9.215 0 010-12.983 48.423 48.423 0 003.383-13.349 196.758 196.758 0 00-41.509 23.863 9.405 9.405 0 01-5.486 1.829 9.18 9.18 0 01-5.577-16.458 221.835 221.835 0 0155.406-30.08c.549-5.303 1.097-10.514 1.463-15.269a40.615 40.615 0 01-13.623-40.777C141.989 284.434 128 246.309 128 223.269a40.044 40.044 0 011.646-12.069 17.44 17.44 0 0110.24-11.611 25.723 25.723 0 0115.909-.914 103.81 103.81 0 0116-68.663c15.909-21.76 42.331-32.731 78.537-32.731h11.337c36.206 0 62.629 10.971 78.537 32.731a103.81 103.81 0 0116 68.663 25.738 25.738 0 0115.909.914 16.45 16.45 0 019.6 9.783 37.507 37.507 0 012.286 13.897c0 23.04-13.989 61.166-39.406 73.143a40.858 40.858 0 01-13.714 40.96c.366 4.389.823 9.6 1.371 15.086a221.87 221.87 0 0155.406 30.08 9.097 9.097 0 013.536 6.038 9.1 9.1 0 01-1.8 6.761zm29.532-144.548c-.366 1.829-.731 3.566-1.189 5.303a81.658 81.658 0 01-4.48 12.251 9.236 9.236 0 01-8.32 5.303 9.674 9.674 0 01-3.84-.823 9.2 9.2 0 01-4.48-12.16 63.568 63.568 0 000-52.48 9.163 9.163 0 014.489-12.141c4.588-2.117 10.024-.122 12.151 4.461a82.272 82.272 0 015.669 50.286zm20.754 45.44a9.11 9.11 0 01-15.542-9.508 99.377 99.377 0 0011.246-26.24 54.355 54.355 0 001.463-6.674 91.172 91.172 0 002.011-19.383 100.185 100.185 0 00-14.72-52.297 9.11 9.11 0 1115.542-9.509c23.284 37.914 23.284 85.696 0 123.611z"/></svg>