<svg height="800" width="800" xmlns="http://www.w3.org/2000/svg" viewBox="0 0 512 512"><path d="M439.652 77.913H306.087C278.468 77.913 256 100.381 256 128v16.696h-33.391V94.609c0-9.223-7.479-16.696-16.696-16.696h-16.696V50.087C189.217 22.468 166.749 0 139.13 0H38.957C29.74 0 22.261 7.473 22.261 16.696c0 9.223 7.479 16.696 16.696 16.696H139.13c9.206 0 16.696 7.49 16.696 16.696v27.826H139.13c-9.217 0-16.696 7.473-16.696 16.696v50.087h-16.696c-27.619 0-50.087 22.468-50.087 50.087v267.13c0 27.619 22.468 50.087 50.087 50.087h333.913c27.619 0 50.087-22.468 50.087-50.087V128c.001-27.619-22.467-50.087-50.086-50.087zm-54.979 338.805c6.521 6.516 6.521 17.092 0 23.609-3.261 3.261-7.533 4.892-11.804 4.892s-8.544-1.631-11.804-4.892l-88.37-88.37-88.37 88.37a16.642 16.642 0 01-11.804 4.892 16.64 16.64 0 01-11.804-4.892c-6.521-6.516-6.521-17.092 0-23.609l88.369-88.37-88.37-88.37c-6.521-6.516-6.521-17.092 0-23.609 6.521-6.521 17.087-6.521 23.609 0l88.37 88.37 88.37-88.37c6.521-6.521 17.087-6.521 23.609 0 6.521 6.516 6.521 17.092 0 23.609l-88.37 88.37 88.369 88.37zm21.588-238.631h-66.783c-9.217 0-16.696-7.473-16.696-16.696 0-9.223 7.479-16.696 16.696-16.696h66.783c9.217 0 16.696 7.473 16.696 16.696 0 9.223-7.479 16.696-16.696 16.696z"/></svg>