<svg height="800" width="800" xmlns="http://www.w3.org/2000/svg" viewBox="0 0 512.076 512.076"><path d="M362.938.076c-7.7-.7-13.8 3.5-17.8 9.3-4 5.9-4.8 13.3-2.2 19.9l42.7 106.7c3.3 8.1 11.1 13.4 19.8 13.4h21.3v192c0 23.5-19.1 42.7-42.7 42.7-23.5 0-42.7-19.1-42.7-42.7v-149.3c0-39.6-27.3-72.8-64-82.3v-88.4c.1-11.7-9.4-21.3-21.2-21.3h-213.3c-11.8 0-21.4 9.6-21.4 21.3v384c-11.7 0-21.3 9.6-21.3 21.4v64c0 11.7 9.6 21.3 21.3 21.3h256c11.8 0 21.3-9.6 21.3-21.3v-64c0-11.8-9.6-21.3-21.3-21.3v-250.1c12.7 7.4 21.3 21 21.3 36.7v149.3c0 47.1 38.3 85.3 85.3 85.3s85.3-38.3 85.3-85.3v-192h21.3c11.8 0 21.3-9.6 21.3-21.3.2-44-31-127.4-149-128zm-256.2 64h85.4c11.8 0 21.3 9.6 21.3 21.3v85.3c0 11.8-9.6 21.3-21.3 21.3h-85.3c-11.8 0-21.3-9.6-21.3-21.3v-85.3h-.1c0-11.8 9.6-21.3 21.3-21.3zm85.4 192c0 11.8-9.6 21.3-21.3 21.3h-42.7c-11.8 0-21.3-9.6-21.3-21.3 0-11.7 9.6-21.3 21.3-21.3h42.7c11.7 0 21.3 9.5 21.3 21.3zm64 213.3h-213.3v-21.3h213.3v21.3z"/></svg>