<svg viewBox="0 0 512 512" xmlns="http://www.w3.org/2000/svg"><path d="M112.023 20.038c-5.101-5.124-11.893-7.95-19.125-7.96h-.035c-7.218 0-14.004 2.81-19.11 7.912l-22.914 22.9c-10.515 10.508-10.537 27.627-.048 38.162l36.469 36.631 61.143-61.104z" fill="#00317e"/><path d="M406.39 0H197.24c-17.8 0-34.52 6.92-47.1 19.49l-91.63 91.58C45.93 123.65 39 140.37 39 158.14v287.29C39 482.14 68.88 512 105.6 512h300.79c36.73 0 66.61-29.86 66.61-66.57V66.57C473 29.86 443.12 0 406.39 0zm12.47 146.08c0 17.12-13.94 31.05-31.07 31.05H157.85c-12.61 0-23.88-7.52-28.71-19.17a30.956 30.956 0 016.74-33.84l61.95-61.91c5.87-5.87 13.67-9.1 21.96-9.1h168c17.13 0 31.07 13.93 31.07 31.06z" fill="#ff4949"/><path d="M473 66.57v378.86c0 36.71-29.88 66.57-66.61 66.57H256V177.13h131.79c17.13 0 31.07-13.93 31.07-31.05V84.17c0-17.13-13.94-31.06-31.07-31.06H256V0h150.39C443.12 0 473 29.86 473 66.57z" fill="#e50048"/><path d="M376.5 347.85c0 66.41-54.05 120.44-120.5 120.44s-120.5-54.03-120.5-120.44S189.55 227.42 256 227.42s120.5 54.02 120.5 120.43z" fill="#ffda00"/><path d="M376.5 347.85c0 66.41-54.05 120.44-120.5 120.44V227.42c66.45 0 120.5 54.02 120.5 120.43z" fill="#ff9f00"/><path d="M283.77 386.06A39.39 39.39 0 01256 397.57h-.05c-.67 0-1.34-.01-2-.05-19.9-1.01-36.27-17.44-37.28-37.4-1.03-20.54 26.35-52.45 31.85-58.63a9.996 9.996 0 017.48-3.36h.1c2.89.03 5.63 1.31 7.51 3.5 7.21 8.46 30.84 37.36 31.7 54.42.56 11.18-3.64 22.12-11.54 30.01z" fill="#00317e"/><path d="M283.77 386.06A39.39 39.39 0 01256 397.57v-99.44h.1c2.89.03 5.63 1.31 7.51 3.5 7.21 8.46 30.84 37.36 31.7 54.42.56 11.18-3.64 22.12-11.54 30.01z" fill="#00215a"/></svg>