<svg viewBox="0 0 510 510" xmlns="http://www.w3.org/2000/svg"><path d="M308.66 87.248l-17.32-24.496L270 77.842V0h-30v77.842l-21.34-15.09-17.32 24.496L255 125.191z"/><path d="M480 105v375H30V105H0v405h510V105z"/><path d="M60 360v68.787L128.787 360zm390 0h-62.013l-90 90h65.961L450 363.948zm0-188.344c-3.989 2.096-8.243 3.344-15.004 3.344-10.46 0-14.924-2.976-21.682-7.481-8.367-5.578-18.78-12.519-38.322-12.519-19.541 0-29.954 6.941-38.32 12.519-6.758 4.505-11.222 7.481-21.681 7.481-10.458 0-14.923-2.976-21.68-7.481-8.366-5.578-18.778-12.519-38.32-12.519-19.541 0-29.953 6.942-38.319 12.52-6.756 4.504-11.22 7.48-21.678 7.48s-14.921-2.976-21.678-7.48c-8.367-5.578-18.779-12.52-38.32-12.52s-29.954 6.941-38.32 12.519C89.919 172.024 85.456 175 74.997 175c-6.757 0-11.01-1.248-14.997-3.342V330h390zM81.213 450h65.961l90-90h-65.961zM450 406.374L406.374 450H450zM345.561 360H279.6l-90 90h65.961z"/></svg>