<svg height="800" width="800" xmlns="http://www.w3.org/2000/svg" viewBox="0 0 612 612"><path d="M175.205 239.62a7.428 7.428 0 00-1.833-5.381l-58.84-66.941a7.429 7.429 0 00-10.483-.675c-27.037 23.766-49.479 51.794-66.706 83.305a7.422 7.422 0 002.954 10.078l78.205 42.748a7.426 7.426 0 0010.08-2.954c11.386-20.828 26.229-39.359 44.114-55.08a7.401 7.401 0 002.509-5.1zm26.257-24.791a7.426 7.426 0 0010.041 3.081 199.993 199.993 0 0167.025-21.561 7.428 7.428 0 006.362-8.358l-11.979-88.316c-.551-4.064-4.304-6.909-8.358-6.362-35.708 4.843-69.949 15.857-101.772 32.736a7.429 7.429 0 00-3.082 10.041l41.763 78.739zm-95.677 119.516l-86.017-23.338a7.433 7.433 0 00-9.113 5.224C3.586 342.295 0 369.309 0 396.523c0 4.657.111 9.329.342 14.284a7.426 7.426 0 007.764 7.075l89.031-4.113a7.421 7.421 0 007.075-7.762c-.155-3.341-.23-6.444-.23-9.484 0-18.02 2.365-35.873 7.029-53.066a7.432 7.432 0 00-5.226-9.112zm332.946-213.6c-32.411-15.625-67.04-25.308-102.925-28.786a7.387 7.387 0 00-5.439 1.659 7.423 7.423 0 00-2.671 5.018l-8.593 88.712a7.427 7.427 0 006.677 8.108c23.652 2.291 46.463 8.669 67.8 18.954a7.417 7.417 0 005.675.322 7.426 7.426 0 004.24-3.786l38.7-80.287a7.422 7.422 0 00-3.464-9.914zm130.911 124.592a7.426 7.426 0 00-.828-5.624c-18.432-30.835-41.933-57.983-69.848-80.686a7.444 7.444 0 00-5.447-1.627 7.43 7.43 0 00-5 2.702l-56.237 69.144a7.426 7.426 0 001.077 10.449c18.47 15.019 34.015 32.975 46.205 53.369a7.428 7.428 0 0010.186 2.564l76.501-45.728a7.438 7.438 0 003.391-4.563zm28.402 59.602c-1.228-3.915-5.397-6.096-9.308-4.867l-85.048 26.648a7.425 7.425 0 00-4.867 9.306c6.104 19.486 9.199 39.839 9.199 60.494a204.4 204.4 0 01-.23 9.484 7.42 7.42 0 001.93 5.347 7.42 7.42 0 005.145 2.415l89.031 4.113a7.429 7.429 0 007.764-7.075c.229-4.955.342-9.627.342-14.284-.002-31.214-4.696-62.026-13.958-91.581zm-292.307 75.816a71.42 71.42 0 00-3.824.11l-120.65-71.185a7.638 7.638 0 00-9.176 1.065 7.643 7.643 0 00-1.456 9.121l65.815 123.355a70.97 70.97 0 00-.371 7.195c0 18.608 7.246 36.101 20.403 49.258 13.158 13.158 30.652 20.404 49.26 20.404 18.608 0 36.101-7.248 49.258-20.404 13.158-13.157 20.403-30.65 20.403-49.258 0-18.608-7.246-36.101-20.403-49.258-13.157-13.157-30.652-20.403-49.259-20.403z"/></svg>