<svg viewBox="0 0 32 32" xmlns="http://www.w3.org/2000/svg"><path d="M26 32H6a6 6 0 01-6-6V6a6 6 0 016-6h20a6 6 0 016 6v20a6 6 0 01-6 6z" fill="#fff9dd"/><g fill="#ffe777"><path d="M20.667 14h-3.333a.667.667 0 110-1.334h3.333v-1.333h-3.333A.667.667 0 0117.333 10h3.333c.736 0 1.334.598 1.334 1.333v1.333c0 .736-.598 1.334-1.333 1.334zM12 14h-.667A1.335 1.335 0 0110 12.667v-1.333c0-.736.598-1.334 1.333-1.334H12a.667.667 0 110 1.333h-.667v1.333H12A.667.667 0 1112 14z"/><path d="M16 14.667h-.667V9.333H16A.667.667 0 1016 8h-.667c-.244 0-.47.071-.667.186A1.312 1.312 0 0014 8h-.667a.667.667 0 100 1.334H14v5.333h-.667a.667.667 0 100 1.333H14c.244 0 .47-.071.667-.186.197.115.422.186.666.186H16a.667.667 0 100-1.333z"/></g><path d="M23.267 10.753c.047.187.067.38.067.58v1.333c0 .673-.253 1.287-.667 1.76v4.907H9.333v-4.907a2.669 2.669 0 01-.667-1.76v-1.333c0-.2.02-.393.067-.58A1.173 1.173 0 008 11.833v9C8 21.473 8.526 22 9.166 22h5.106c-.078.334-.286.876-.841 1.431a.333.333 0 00.236.569h4.667a.334.334 0 00.236-.569c-.554-.554-.767-1.096-.85-1.431h5.114c.64 0 1.166-.527 1.166-1.167v-9c0-.486-.306-.906-.733-1.08z" fill="#ffd200"/></svg>