<svg viewBox="0 0 512 512" xmlns="http://www.w3.org/2000/svg"><path d="M281.548 380.22c0-28.766 9.272-56.103 26.389-78.615h-50.104v38.76h-90v-38.76H22.711v143.948H299.07c-11.425-19.632-17.522-42.013-17.522-65.333zM167.833 271.606V233.22h90v38.385h82.03c21.14-14.059 45.944-21.611 71.911-21.611 4.674 0 9.308.253 13.892.736V116.046H306.638V31.554h-187.61v84.492H0v155.56zM276.638 86.5v29.546h-127.61V86.5z"/><path d="M197.833 263.22h30v47.145h-30zM512 380.22c0-55.353-44.873-100.226-100.226-100.226S311.548 324.867 311.548 380.22s44.873 100.226 100.226 100.226S512 435.574 512 380.22zm-50.113 15h-65.113v-52.584h30v22.584h35.113z"/></svg>